<svg width="1420" height="245" viewBox="0 0 1420 245" fill="none" xmlns="http://www.w3.org/2000/svg">
<line y1="244.5" x2="1420" y2="244.5" stroke="white"/>
<line y1="203.871" x2="1420" y2="203.871" stroke="white"/>
<line y1="163.241" x2="1420" y2="163.241" stroke="white"/>
<line y1="122.612" x2="1420" y2="122.612" stroke="white"/>
<line y1="81.9817" x2="1420" y2="81.9817" stroke="white"/>
<line y1="41.3523" x2="1420" y2="41.3523" stroke="white"/>
<line y1="0.722656" x2="1420" y2="0.722656" stroke="white"/>
<line x1="40.1295" y1="245" x2="40.1294" y2="0.207443" stroke="white"/>
<line x1="80.7589" y1="245" x2="80.7589" y2="0.207443" stroke="white"/>
<line x1="121.388" y1="245" x2="121.388" y2="0.207443" stroke="white"/>
<line x1="162.018" y1="245" x2="162.018" y2="0.207443" stroke="white"/>
<line x1="202.647" y1="245" x2="202.647" y2="0.207443" stroke="white"/>
<line x1="243.277" y1="245" x2="243.277" y2="0.207443" stroke="white"/>
<line x1="283.906" y1="245" x2="283.906" y2="0.207443" stroke="white"/>
<line x1="324.536" y1="245" x2="324.536" y2="0.207443" stroke="white"/>
<line x1="365.165" y1="245" x2="365.165" y2="0.207443" stroke="white"/>
<line x1="405.795" y1="245" x2="405.795" y2="0.207443" stroke="white"/>
<line x1="446.424" y1="245" x2="446.424" y2="0.207443" stroke="white"/>
<line x1="487.054" y1="245" x2="487.054" y2="0.207443" stroke="white"/>
<line x1="527.683" y1="245" x2="527.683" y2="0.207443" stroke="white"/>
<line x1="568.313" y1="245" x2="568.313" y2="0.207443" stroke="white"/>
<line x1="608.942" y1="245" x2="608.942" y2="0.207443" stroke="white"/>
<line x1="649.571" y1="245" x2="649.571" y2="0.207443" stroke="white"/>
<line x1="690.201" y1="245" x2="690.201" y2="0.207443" stroke="white"/>
<line x1="730.83" y1="245" x2="730.83" y2="0.207443" stroke="white"/>
<line x1="771.46" y1="245" x2="771.46" y2="0.207443" stroke="white"/>
<line x1="812.089" y1="245" x2="812.089" y2="0.207443" stroke="white"/>
<line x1="852.719" y1="245" x2="852.719" y2="0.207443" stroke="white"/>
<line x1="893.348" y1="245" x2="893.348" y2="0.207443" stroke="white"/>
<line x1="933.978" y1="245" x2="933.978" y2="0.207443" stroke="white"/>
<line x1="974.607" y1="245" x2="974.607" y2="0.207443" stroke="white"/>
<line x1="1015.24" y1="245" x2="1015.24" y2="0.207443" stroke="white"/>
<line x1="1055.87" y1="245" x2="1055.87" y2="0.207443" stroke="white"/>
<line x1="1096.5" y1="245" x2="1096.5" y2="0.207443" stroke="white"/>
<line x1="1137.13" y1="245" x2="1137.13" y2="0.207443" stroke="white"/>
<line x1="1177.75" y1="245" x2="1177.75" y2="0.207443" stroke="white"/>
<line x1="1218.38" y1="245" x2="1218.38" y2="0.207443" stroke="white"/>
<line x1="1259.01" y1="245" x2="1259.01" y2="0.207443" stroke="white"/>
<line x1="1299.64" y1="245" x2="1299.64" y2="0.207443" stroke="white"/>
<line x1="1340.27" y1="245" x2="1340.27" y2="0.207443" stroke="white"/>
<line x1="1380.9" y1="245" x2="1380.9" y2="0.207443" stroke="white"/>
</svg>
